# xmcd
# 
# Track frame offsets:
#     182
#     24620
#     48532
#     64352
#     80227
#     99895
#     114075
#     130435
#     151770
#     170880
#     187015
#     196597
#     215550
#     231892
#     246217
# 
# Disc length: 3488
# 
# Revision: 3
# Processed by: cddbd v1.5.2PL0 Copyright (c) Steve Scherf et al.
# Submitted via: fre:ac v1.0.31
# 
DISCID=d20d9e0f
DTITLE=Rock Nacional - La Colección - 30 Años de Rock Nacional - Vol. 20
DYEAR=1996
DGENRE=
TTITLE0=Pappo´s Blues - Desconfío De La Vida
TTITLE1=Memphis La Blusera - A Punto De Estallar De Amor
TTITLE2=Las Blancasblus - Rouge Y Pentagrama
TTITLE3=Litto Nebbia - No Importa La Razón
TTITLE4=Pete Seeger Y León Gieco - Guantanamera
TTITLE5=Horacio Fontova - A Pesar De Todo Me Siento Bien
TTITLE6=Alejandro Del Prado - Aquella Murguita De Villa Real
TTITLE7=Oveja Negra - Canción De Los Plomos
TTITLE8=Celeste Carballo - Mi Voz Renacerá
TTITLE9=Raúl Porchetto - Canción Para Todos Los Días
TTITLE10=Charly García - Dos Cero Uno (Transas)
TTITLE11=Fito Páez - Gente Sin Swing
TTITLE12=Man Ray - Corto Circuito
TTITLE13=La Portuaria - Me Quedo Contigo
TTITLE14=Manuel Wirtz - Magia
EXTD=
EXTT0=
EXTT1=
EXTT2=
EXTT3=
EXTT4=
EXTT5=
EXTT6=
EXTT7=
EXTT8=
EXTT9=
EXTT10=
EXTT11=
EXTT12=
EXTT13=
EXTT14=
PLAYORDER=
